<svg id="Layer_4" data-name="Layer 4" xmlns="http://www.w3.org/2000/svg" viewBox="0 0 239.39 253.53"><defs><style>.cls-1{fill:#e01f26;}.cls-2{fill:#626070;}.cls-3{fill:#35c4e5;}.cls-4{fill:none;stroke:#58595b;stroke-linecap:round;stroke-linejoin:round;stroke-width:2px;}</style></defs><title>rh-logo-large</title><g id="_Group_" data-name="&lt;Group&gt;"><path class="cls-1" d="M282.86,411.61l-12.77-.09,15.34,75.39,2.42,11.9-0.2,0h-2.22l-31.87-.25h-1.08l-17.62-86.76c19.54-9.6,22.24-35.72,20.24-55-2.22-21.27-9.92-42.36-20.83-60.68s-26.41-36-46.32-44.47a48.5,48.5,0,0,0-15-3.87l0-.23,42.15,0c4.27,0.38,8.49,1.58,14.53,5q2,1.13,4,2.38c16.25,10.33,29.17,26.3,38,43.17,0.22,0.41.43,0.83,0.64,1.24,8.5,16.71,18.88,40.67,17.26,69.27a105,105,0,0,1-1.17,10.77l48.07,0.33c5.37-33.36-5.55-61.09-15.1-79.87S297.2,263.43,278.68,253a40.44,40.44,0,0,0-15.82-5.32,35.19,35.19,0,0,0-5-.39l41.27,0.24c4.27,0.38,8.49,1.58,14.53,5,18.53,10.39,33.07,28.11,42.58,46.79s16.57,40.08,16.66,61.26c0.06,15.42-5.36,36.45-19.77,50.94l17.76,87.29-0.2,0H335.53l-17.67-87Z" transform="translate(-134.47 -246.32)"/><path class="cls-2" d="M321.26,299.82c9.55,18.78,20.47,46.51,15.1,79.87l-48.07-.33a105,105,0,0,0,1.17-10.77h0.28c5.82-2.78,9.36-10.69,9.65-20.55a54.27,54.27,0,0,0-5.48-24.61,70.55,70.55,0,0,0-5.55-9.61c-8.21-11.85-16.8-15.75-16.8-15.75-8.81-16.87-21.73-32.84-38-43.17l1.55-1.29a45.21,45.21,0,0,1,22.17-6.3h0.52a35.19,35.19,0,0,1,5,.39A40.44,40.44,0,0,1,278.68,253C297.2,263.43,311.75,281.15,321.26,299.82Z" transform="translate(-134.47 -246.32)"/><polygon class="cls-2" points="150.96 178.07 148.39 165.29 183.39 165.53 201.06 252.53 165.94 252.53 150.96 178.09 150.96 178.07"/><path class="cls-3" d="M299.16,348h0.23c-0.29,9.86-3.83,17.77-9.65,20.55h-0.28c1.62-28.6-8.76-52.56-17.26-69.27-0.21-.41-0.42-0.83-0.64-1.24,0,0,8.59,3.9,16.8,15.75l-0.2.14a65.76,65.76,0,0,0,3.41,18.62A55.63,55.63,0,0,0,299.16,348Z" transform="translate(-134.47 -246.32)"/><polygon class="cls-3" points="150.96 178.07 150.96 178.09 150.96 240.59 135.62 165.2 148.39 165.29 150.96 178.07"/><path class="cls-2" d="M255.1,356.85c2,19.28-.7,45.4-20.24,55l17.62,86.76-33.82.24h-1.25l-15-74.52h0l-3.16-15.71a67.82,67.82,0,0,1-6.89-3.49c-2.2-1.47-14.13-8.09-21.82-19.66V498.6l-34.78.25-0.31-192.57c0.31-19.62-.17-24.95,4.75-36.65,3.58-8.52,9.86-16.3,18.59-19.81a31,31,0,0,1,14.11-2,48.5,48.5,0,0,1,15,3.87c19.91,8.46,35.46,26.25,46.32,44.47S252.88,335.58,255.1,356.85Zm-37.69-7.4c0-7.69-2.13-16.88-6.5-26a72.86,72.86,0,0,0-5.53-9.62c-9.24-13.49-21.44-20.72-29.85-16.69-10.25,4.9-11,24.63-1.72,44.06s25.14,31.2,35.38,26.3C214.62,364.89,217.39,358.13,217.41,349.45Z" transform="translate(-134.47 -246.32)"/><path class="cls-3" d="M217.12,349.45h0.29c0,8.68-2.79,15.44-8.22,18-10.24,4.9-26.09-6.87-35.38-26.3s-8.53-39.16,1.72-44.06c8.41-4,20.61,3.2,29.85,16.69l-0.22.15A65.87,65.87,0,0,0,217.12,349.45Z" transform="translate(-134.47 -246.32)"/><path class="cls-3" d="M202.43,424.33v74.52l-31.87-.25V385.46c7.69,11.57,19.62,18.19,21.82,19.66a67.82,67.82,0,0,0,6.89,3.49l3.16,15.71h0Z" transform="translate(-134.47 -246.32)"/><polyline class="cls-4" points="100.39 165.53 118.01 252.29 118.06 252.53"/><polyline class="cls-4" points="118.06 252.53 84.19 252.53 82.94 252.53"/><line class="cls-4" x1="67.96" y1="178" x2="64.8" y2="162.29"/><line class="cls-4" x1="82.94" y1="252.53" x2="67.96" y2="178.01"/><line class="cls-4" x1="36.09" y1="139.14" x2="36.09" y2="252.28"/><polyline class="cls-4" points="36.09 252.28 1.31 252.53 1.19 252.53"/><line class="cls-4" x1="1.31" y1="252.53" x2="1" y2="59.96"/><path class="cls-4" d="M205.38,313.82a72.86,72.86,0,0,1,5.53,9.62c4.37,9.13,6.52,18.32,6.5,26,0,8.68-2.79,15.44-8.22,18-10.24,4.9-26.09-6.87-35.38-26.3s-8.53-39.16,1.72-44.06C183.94,293.1,196.14,300.33,205.38,313.82Z" transform="translate(-134.47 -246.32)"/><path class="cls-4" d="M234.86,411.85c19.54-9.6,22.24-35.72,20.24-55-2.22-21.27-9.92-42.36-20.83-60.68s-26.41-36-46.32-44.47a48.5,48.5,0,0,0-15-3.87,31,31,0,0,0-14.11,2c-8.73,3.51-15,11.29-18.59,19.81-4.92,11.7-4.44,17-4.75,36.65" transform="translate(-134.47 -246.32)"/><path class="cls-4" d="M170.56,385.46c7.69,11.57,19.62,18.19,21.82,19.66a67.82,67.82,0,0,0,6.89,3.49" transform="translate(-134.47 -246.32)"/><polyline class="cls-4" points="67.96 252.53 67.96 178.01 67.96 178"/><polyline class="cls-4" points="153.39 252.53 153.38 252.49 150.96 240.59 135.62 165.2"/><line class="cls-4" x1="38.47" y1="1.28" x2="80.62" y2="1.25"/><path class="cls-4" d="M205.16,314a65.87,65.87,0,0,0,12,35.48" transform="translate(-134.47 -246.32)"/><polyline class="cls-4" points="153.18 252.53 150.96 252.53 118.06 252.53"/><line class="cls-4" x1="67.96" y1="252.53" x2="36.09" y2="252.28"/><path class="cls-4" d="M288.29,379.36a105,105,0,0,0,1.17-10.77c1.62-28.6-8.76-52.56-17.26-69.27-0.21-.41-0.42-0.83-0.64-1.24-8.81-16.87-21.73-32.84-38-43.17q-2-1.26-4-2.38c-6-3.38-10.26-4.58-14.53-5" transform="translate(-134.47 -246.32)"/><line class="cls-4" x1="183.39" y1="165.53" x2="201.06" y2="252.53"/><line class="cls-4" x1="201.06" y1="252.53" x2="165.94" y2="252.53"/><polyline class="cls-4" points="150.96 178.07 148.39 165.29 148.37 165.2"/><line class="cls-4" x1="165.94" y1="252.53" x2="150.96" y2="178.09"/><polyline class="cls-4" points="119.09 252.28 118.01 252.29 84.19 252.53"/><path class="cls-4" d="M271.56,298.08s8.59,3.9,16.8,15.75a70.55,70.55,0,0,1,5.55,9.61,54.27,54.27,0,0,1,5.48,24.61c-0.29,9.86-3.83,17.77-9.65,20.55" transform="translate(-134.47 -246.32)"/><path class="cls-4" d="M257.3,247.32a45.21,45.21,0,0,0-22.17,6.3l-1.55,1.29" transform="translate(-134.47 -246.32)"/><path class="cls-4" d="M262.86,247.72a35.19,35.19,0,0,0-5-.39" transform="translate(-134.47 -246.32)"/><polyline class="cls-4" points="150.96 240.59 150.96 178.09 150.96 178.07 150.96 178"/><polyline class="cls-4" points="236.39 252.53 236.38 252.49 218.62 165.2"/><polyline class="cls-4" points="122.41 1 122.83 1 123.35 1.01 164.62 1.25"/><path class="cls-4" d="M288.16,314a65.76,65.76,0,0,0,3.41,18.62A55.63,55.63,0,0,0,299.16,348" transform="translate(-134.47 -246.32)"/><line class="cls-4" x1="236.18" y1="252.53" x2="201.06" y2="252.53"/><line class="cls-4" x1="150.96" y1="252.53" x2="119.09" y2="252.28"/><path class="cls-4" d="M353.09,411.52C367.5,397,372.92,376,372.86,360.58c-0.09-21.18-7.11-42.49-16.66-61.26s-24.05-36.4-42.58-46.79c-6-3.38-10.26-4.58-14.53-5" transform="translate(-134.47 -246.32)"/><polyline class="cls-4" points="135.62 165.2 148.39 165.29 183.39 165.53"/><line class="cls-4" x1="153.82" y1="133.04" x2="201.89" y2="133.37"/><path class="cls-4" d="M336.36,379.69c5.37-33.36-5.55-61.09-15.1-79.87S297.2,263.43,278.68,253a40.44,40.44,0,0,0-15.82-5.32" transform="translate(-134.47 -246.32)"/></g></svg>